HIERARCHY
ROOT Hip
{
	OFFSET -1.467917 -1.848279 -0.039926
	CHANNELS 6 Xposition Yposition Zposition Xrotation Yrotation Zrotation
	JOINT LowerSpine
	{
		OFFSET 0.045234 0.147948 0.259863
		CHANNELS 6 Xposition Yposition Zposition Xrotation Yrotation Zrotation
		JOINT MiddleSpine
		{
			OFFSET -0.003288 -0.010640 0.237155
			CHANNELS 3 Xrotation Yrotation Zrotation
			JOINT Chest
			{
				OFFSET 0.017170 0.056243 0.293445
				CHANNELS 3 Xrotation Yrotation Zrotation
				JOINT Neck
				{
					OFFSET 0.003552 0.011901 0.661278
					CHANNELS 6 Xposition Yposition Zposition Xrotation Yrotation Zrotation
					JOINT Head
					{
						OFFSET -0.029761 -0.097089 0.373440
						CHANNELS 3 Xrotation Yrotation Zrotation
						End Site
						{
							OFFSET -0.000474 -0.001526 0.053628
						}
					}
				}
				JOINT LClavicle
				{
					OFFSET -0.000185 -0.205681 0.638189
					CHANNELS 6 Xposition Yposition Zposition Xrotation Yrotation Zrotation
					JOINT LShoulder
					{
						OFFSET 0.378994 0.038935 0.091570
						CHANNELS 3 Xrotation Yrotation Zrotation
						JOINT LForearm
						{
							OFFSET 0.794344 -0.235546 -0.002831
							CHANNELS 3 Xrotation Yrotation Zrotation
							JOINT LHand
							{
								OFFSET 0.662109 -0.198262 0.002094
								CHANNELS 3 Xrotation Yrotation Zrotation
								JOINT LFinger1
								{
									OFFSET 0.234374 -0.149516 0.023467
									CHANNELS 6 Xposition Yposition Zposition Xrotation Yrotation Zrotation
									JOINT LFinger11
									{
										OFFSET 0.090648 -0.046200 -0.024419
										CHANNELS 3 Xrotation Yrotation Zrotation
										JOINT LFinger12
										{
											OFFSET 0.061882 -0.031544 -0.016673
											CHANNELS 3 Xrotation Yrotation Zrotation
											End Site
											{
												OFFSET 0.046168 -0.022746 -0.015156
											}
										}
									}
								}
								JOINT LFinger2
								{
									OFFSET 0.258071 -0.085736 0.027089
									CHANNELS 6 Xposition Yposition Zposition Xrotation Yrotation Zrotation
									JOINT LFinger21
									{
										OFFSET 0.118678 -0.035549 0.000360
										CHANNELS 3 Xrotation Yrotation Zrotation
										JOINT LFinger22
										{
											OFFSET 0.065787 -0.019693 0.000219
											CHANNELS 3 Xrotation Yrotation Zrotation
											End Site
											{
												OFFSET 0.051156 -0.015729 -0.003774
											}
										}
									}
								}
								JOINT LFinger3
								{
									OFFSET 0.264208 -0.017096 0.018083
									CHANNELS 6 Xposition Yposition Zposition Xrotation Yrotation Zrotation
									JOINT LFinger31
									{
										OFFSET 0.109555 -0.026161 -0.005678
										CHANNELS 3 Xrotation Yrotation Zrotation
										JOINT LFinger32
										{
											OFFSET 0.062433 -0.014896 -0.003215
											CHANNELS 3 Xrotation Yrotation Zrotation
											End Site
											{
												OFFSET 0.051601 -0.013161 -0.006533
											}
										}
									}
								}
								JOINT LFinger4
								{
									OFFSET 0.259429 0.030705 -0.018145
									CHANNELS 6 Xposition Yposition Zposition Xrotation Yrotation Zrotation
									JOINT LFinger41
									{
										OFFSET 0.071706 -0.001980 -0.014412
										CHANNELS 3 Xrotation Yrotation Zrotation
										JOINT LFinger42
										{
											OFFSET 0.052585 -0.001444 -0.010554
											CHANNELS 3 Xrotation Yrotation Zrotation
											End Site
											{
												OFFSET 0.051696 -0.003698 -0.013873
											}
										}
									}
								}
								JOINT LFinger0
								{
									OFFSET 0.040700 -0.056387 -0.041932
									CHANNELS 6 Xposition Yposition Zposition Xrotation Yrotation Zrotation
									JOINT LFinger01
									{
										OFFSET 0.075898 -0.104569 -0.033862
										CHANNELS 3 Xrotation Yrotation Zrotation
										JOINT LFinger02
										{
											OFFSET 0.050643 -0.066682 -0.024297
											CHANNELS 3 Xrotation Yrotation Zrotation
											End Site
											{
												OFFSET 0.032191 -0.040344 -0.014652
											}
										}
									}
								}
							}
						}
					}
				}
				JOINT RClavicle
				{
					OFFSET -0.115097 -0.170520 0.638173
					CHANNELS 6 Xposition Yposition Zposition Xrotation Yrotation Zrotation
					JOINT RShoulder
					{
						OFFSET -0.292390 0.244392 0.091496
						CHANNELS 3 Xrotation Yrotation Zrotation
						JOINT RForearm
						{
							OFFSET -0.790143 0.249275 -0.003045
							CHANNELS 3 Xrotation Yrotation Zrotation
							JOINT RHand
							{
								OFFSET -0.659686 0.206182 0.001916
								CHANNELS 3 Xrotation Yrotation Zrotation
								JOINT RFinger1
								{
									OFFSET -0.277918 0.007236 0.023401
									CHANNELS 6 Xposition Yposition Zposition Xrotation Yrotation Zrotation
									JOINT RFinger11
									{
										OFFSET -0.100973 0.012432 -0.024444
										CHANNELS 3 Xrotation Yrotation Zrotation
										JOINT RFinger12
										{
											OFFSET -0.068934 0.008483 -0.016696
											CHANNELS 3 Xrotation Yrotation Zrotation
											End Site
											{
												OFFSET -0.050987 0.006982 -0.015169
											}
										}
									}
								}
								JOINT RFinger2
								{
									OFFSET -0.261867 0.073352 0.027019
									CHANNELS 6 Xposition Yposition Zposition Xrotation Yrotation Zrotation
									JOINT RFinger21
									{
										OFFSET -0.118250 0.036947 0.000331
										CHANNELS 3 Xrotation Yrotation Zrotation
										JOINT RFinger22
										{
											OFFSET -0.065543 0.020494 0.000201
											CHANNELS 3 Xrotation Yrotation Zrotation
											End Site
											{
												OFFSET -0.051198 0.015589 -0.003787
											}
										}
									}
								}
								JOINT RFinger3
								{
									OFFSET -0.228541 0.133676 0.018020
									CHANNELS 6 Xposition Yposition Zposition Xrotation Yrotation Zrotation
									JOINT RFinger31
									{
										OFFSET -0.105434 0.039622 -0.005707
										CHANNELS 3 Xrotation Yrotation Zrotation
										JOINT RFinger32
										{
											OFFSET -0.060081 0.022591 -0.003231
											CHANNELS 3 Xrotation Yrotation Zrotation
											End Site
											{
												OFFSET -0.050129 0.017967 -0.006547
											}
										}
									}
								}
								JOINT RFinger4
								{
									OFFSET -0.197823 0.170615 -0.018207
									CHANNELS 6 Xposition Yposition Zposition Xrotation Yrotation Zrotation
									JOINT RFinger41
									{
										OFFSET -0.060535 0.038482 -0.014430
										CHANNELS 3 Xrotation Yrotation Zrotation
										JOINT RFinger42
										{
											OFFSET -0.044387 0.028227 -0.010563
											CHANNELS 3 Xrotation Yrotation Zrotation
											End Site
											{
												OFFSET -0.044910 0.025862 -0.013886
											}
										}
									}
								}
								JOINT RFinger0
								{
									OFFSET -0.065272 -0.023958 -0.041943
									CHANNELS 6 Xposition Yposition Zposition Xrotation Yrotation Zrotation
									JOINT RFinger01
									{
										OFFSET -0.121410 -0.044200 -0.033894
										CHANNELS 3 Xrotation Yrotation Zrotation
										JOINT RFinger02
										{
											OFFSET -0.079279 -0.026928 -0.024312
											CHANNELS 3 Xrotation Yrotation Zrotation
											End Site
											{
												OFFSET -0.049251 -0.015425 -0.014663
											}
										}
									}
								}
							}
						}
					}
				}
			}
		}
	}
	JOINT RThigh
	{
		OFFSET -0.286452 0.114016 0.117427
		CHANNELS 6 Xposition Yposition Zposition Xrotation Yrotation Zrotation
		JOINT RShin
		{
			OFFSET -0.021147 0.006388 -1.209172
			CHANNELS 3 Xrotation Yrotation Zrotation
			JOINT RFoot
			{
				OFFSET 0.000124 -0.000119 -1.187331
				CHANNELS 3 Xrotation Yrotation Zrotation
				JOINT RToe
				{
					OFFSET -0.079831 -0.260959 -0.130479
					CHANNELS 3 Xrotation Yrotation Zrotation
					End Site
					{
						OFFSET -0.015698 -0.051304 0.000004
					}
				}
			}
		}
	}
	JOINT LThigh
	{
		OFFSET 0.301175 -0.065786 0.117515
		CHANNELS 6 Xposition Yposition Zposition Xrotation Yrotation Zrotation
		JOINT LShin
		{
			OFFSET 0.021398 -0.006630 -1.209175
			CHANNELS 3 Xrotation Yrotation Zrotation
			JOINT LFoot
			{
				OFFSET 0.000124 -0.000119 -1.187332
				CHANNELS 3 Xrotation Yrotation Zrotation
				JOINT LToe
				{
					OFFSET -0.079831 -0.260962 -0.130481
					CHANNELS 3 Xrotation Yrotation Zrotation
					End Site
					{
						OFFSET -0.015698 -0.051304 0.000004
					}
				}
			}
		}
	}
}
MOTION
Frames: 5
Frame Time: 0.041667
-1.011521 -1.183335 1.671437 16.651248 -12.222740 -387.209325 0.045234 0.147948 0.259863 0.000001 -0.000004 -0.000005 -2.090852 1.044554 -2.041735 -5.397317 5.647041 -10.549924 0.003552 0.011901 0.661278 -24.176798 0.659197 -1.741018 -4.190481 -1.801737 -0.154396 -0.000186 -0.205681 0.638189 -1.956085 -1.400467 -0.131296 14.802938 2.445017 4.434472 0.000002 -0.000046 0.054381 -0.000008 0.000005 0.000001 0.234374 -0.149516 0.023468 -0.000028 0.000000 -0.000053 -0.000013 -0.000023 0.000081 -0.000005 -0.000005 -0.000018 0.258070 -0.085736 0.027089 -0.000020 -0.000008 -0.000039 -0.000023 -0.000005 -0.000004 -0.000075 -0.000002 -0.000099 0.264208 -0.017096 0.018083 -0.000014 0.000007 -0.000034 -0.000016 -0.000011 -0.000015 -0.000004 0.000005 -0.000015 0.259428 0.030706 -0.018145 -0.000022 -0.000008 -0.000044 0.000004 -0.000016 -0.000011 0.000004 -0.000038 -0.000009 0.040700 -0.056388 -0.041931 -0.000013 0.000011 -0.000048 0.000017 0.000004 -0.000065 0.000040 0.000074 -0.000008 -0.115097 -0.170521 0.638174 -10.564924 -15.072059 -9.111646 -22.498040 -41.390222 -33.092506 0.058215 -0.011683 22.389507 -0.000006 -0.000011 -0.000002 -0.277918 0.007236 0.023401 0.000022 -0.000007 -0.000050 -0.000027 -0.000033 0.000071 0.000001 -0.000028 -0.000022 -0.261867 0.073352 0.027019 0.000025 0.000004 -0.000037 0.000036 0.000168 0.000232 0.000006 0.000016 -0.000022 -0.228542 0.133676 0.018020 0.000021 0.000003 -0.000037 0.000028 -0.000041 -0.000082 -0.000003 0.000024 -0.000013 -0.197823 0.170615 -0.018207 0.000018 0.000007 -0.000026 -0.000002 0.000001 0.000011 -0.000058 0.000074 0.000139 -0.065272 -0.023959 -0.041943 0.000030 -0.000012 -0.000014 -0.000032 0.000047 0.000004 0.000011 -0.000004 -0.000000 -0.306873 0.181580 0.328480 -45.836993 22.955994 -6.105185 77.654108 -16.635730 13.433590 -5.058509 0.457440 2.015118 -30.431628 8.810904 2.396501 0.298159 -0.007718 0.294734 -69.939334 -18.674429 13.351830 23.076810 -6.838362 1.400779 -0.224232 -2.659427 5.362723 -0.001034 0.000318 -0.000011 
-1.004773 -1.251993 1.650445 16.703829 -11.627058 -386.797328 0.045234 0.147948 0.259863 0.000003 -0.000005 -0.000007 -2.113436 1.041080 -1.770143 -5.535689 5.561552 -9.934792 0.003552 0.011901 0.661277 -22.778242 0.619322 -1.640476 -4.312907 -1.729465 -0.152130 -0.000185 -0.205681 0.638189 -1.974461 -1.118115 -0.132726 14.866332 4.657465 8.903775 0.000834 -0.000356 -0.826589 -0.000006 0.000007 -0.000002 0.234374 -0.149515 0.023468 -0.000031 0.000003 -0.000050 -0.000012 -0.000024 0.000081 -0.000003 -0.000009 -0.000012 0.258071 -0.085736 0.027089 -0.000023 -0.000009 -0.000035 -0.000022 -0.000005 -0.000004 -0.000069 -0.000003 -0.000097 0.264208 -0.017095 0.018083 -0.000021 0.000006 -0.000033 -0.000012 -0.000012 -0.000020 -0.000003 0.000006 -0.000015 0.259429 0.030706 -0.018145 -0.000024 -0.000006 -0.000040 0.000002 -0.000018 -0.000008 0.000006 -0.000034 -0.000009 0.040700 -0.056387 -0.041931 -0.000019 0.000013 -0.000046 0.000022 -0.000002 -0.000061 0.000039 0.000067 -0.000009 -0.115097 -0.170521 0.638173 -10.607551 -15.078563 -9.169113 -22.274678 -36.151037 -31.661441 0.054870 -0.011861 20.900743 -0.000008 -0.000015 0.000002 -0.277919 0.007236 0.023401 0.000019 -0.000007 -0.000052 -0.000028 -0.000032 0.000072 0.000001 -0.000028 -0.000020 -0.261867 0.073352 0.027019 0.000022 0.000009 -0.000040 0.000035 0.000171 0.000236 0.000001 0.000006 -0.000018 -0.228543 0.133676 0.018020 0.000020 0.000003 -0.000044 0.000025 -0.000042 -0.000081 -0.000006 0.000022 -0.000011 -0.197824 0.170615 -0.018207 0.000018 0.000004 -0.000031 0.000001 0.000001 0.000007 -0.000058 0.000077 0.000140 -0.065273 -0.023959 -0.041943 0.000032 -0.000015 -0.000019 -0.000036 0.000050 0.000007 0.000008 0.000000 0.000004 -0.307403 0.180163 0.325512 -44.208867 23.743126 -5.664481 78.254789 -16.670856 13.605807 -5.664090 0.196009 2.804237 -31.225118 9.014442 2.519329 0.299088 -0.009137 0.289416 -73.104997 -20.219315 24.212546 28.341409 -8.263790 2.093831 4.957175 -5.420015 9.125630 -0.001126 0.000349 -0.000013 
-0.999162 -1.326422 1.637463 16.769882 -10.730845 -386.227827 0.045234 0.147948 0.259863 -0.000000 -0.000003 -0.000005 -2.138627 1.023846 -1.480329 -5.725113 5.473812 -9.199252 0.003552 0.011900 0.661277 -21.518320 0.653519 -1.517048 -4.432692 -1.647264 -0.150092 -0.000186 -0.205681 0.638188 -1.997232 -0.851396 -0.134363 14.847778 6.974900 13.162320 0.000285 -0.000246 -1.561708 -0.000007 0.000007 0.000002 0.234374 -0.149516 0.023467 -0.000037 0.000000 -0.000049 -0.000008 -0.000018 0.000081 0.000001 -0.000005 -0.000014 0.258071 -0.085735 0.027089 -0.000021 -0.000006 -0.000041 -0.000023 -0.000006 -0.000006 -0.000067 -0.000002 -0.000097 0.264208 -0.017096 0.018083 -0.000018 0.000008 -0.000033 -0.000017 -0.000010 -0.000015 -0.000007 0.000003 -0.000015 0.259429 0.030706 -0.018146 -0.000025 -0.000005 -0.000041 -0.000001 -0.000022 -0.000012 0.000005 -0.000039 -0.000011 0.040700 -0.056387 -0.041932 -0.000019 0.000012 -0.000043 0.000017 0.000004 -0.000067 0.000035 0.000073 -0.000008 -0.115097 -0.170521 0.638173 -10.760662 -15.101627 -9.375480 -22.208649 -31.123960 -30.165660 0.049817 -0.011749 18.926929 -0.000003 -0.000012 0.000003 -0.277918 0.007237 0.023400 0.000021 0.000000 -0.000047 -0.000026 -0.000035 0.000071 0.000007 -0.000023 -0.000020 -0.261866 0.073352 0.027019 0.000023 0.000006 -0.000035 0.000035 0.000168 0.000236 -0.000003 0.000004 -0.000022 -0.228542 0.133676 0.018020 0.000022 0.000010 -0.000040 0.000026 -0.000046 -0.000079 -0.000003 0.000019 -0.000009 -0.197823 0.170616 -0.018207 0.000019 0.000008 -0.000028 -0.000001 0.000000 0.000010 -0.000058 0.000075 0.000144 -0.065272 -0.023959 -0.041943 0.000030 -0.000011 -0.000014 -0.000032 0.000056 0.000006 0.000009 -0.000004 -0.000000 -0.307945 0.178690 0.322382 -41.728132 24.059304 -5.489373 77.807008 -16.644829 13.477393 -6.088092 -0.099015 3.547463 -31.939744 9.196109 2.632322 0.299998 -0.010556 0.284183 -75.561283 -22.092211 32.321825 33.870570 -9.676096 2.957359 9.819309 -6.204630 8.861765 -0.001220 0.000377 -0.000013 
-0.991472 -1.408653 1.629949 16.751288 -9.479591 -385.230292 0.045234 0.147948 0.259863 0.000001 -0.000004 -0.000007 -2.166632 0.996915 -1.188507 -5.939594 5.363605 -8.467502 0.003552 0.011900 0.661278 -20.571975 0.752888 -1.391241 -4.548455 -1.554972 -0.148119 -0.000186 -0.205681 0.638189 -2.015135 -0.563184 -0.135573 14.808991 9.401305 17.060651 -0.000514 -0.002655 -1.948837 -0.000008 0.000004 -0.000001 0.234374 -0.149515 0.023466 -0.000029 0.000001 -0.000049 -0.000007 -0.000019 0.000081 -0.000006 -0.000004 -0.000014 0.258071 -0.085736 0.027089 -0.000017 -0.000007 -0.000037 -0.000023 -0.000007 -0.000004 -0.000071 -0.000004 -0.000099 0.264208 -0.017095 0.018082 -0.000017 0.000006 -0.000033 -0.000019 -0.000012 -0.000009 -0.000001 0.000004 -0.000017 0.259429 0.030705 -0.018146 -0.000024 -0.000007 -0.000042 -0.000002 -0.000019 -0.000010 0.000003 -0.000038 -0.000008 0.040700 -0.056387 -0.041932 -0.000012 0.000010 -0.000044 0.000020 0.000000 -0.000066 0.000033 0.000070 -0.000008 -0.115097 -0.170521 0.638174 -10.992415 -15.135472 -9.687745 -22.338234 -26.762763 -28.007317 0.045568 -0.011718 16.961730 -0.000007 -0.000012 -0.000003 -0.277918 0.007237 0.023401 0.000022 -0.000003 -0.000051 -0.000021 -0.000033 0.000070 0.000004 -0.000022 -0.000014 -0.261867 0.073352 0.027019 0.000025 0.000005 -0.000033 0.000037 0.000176 0.000234 0.000002 0.000011 -0.000018 -0.228542 0.133676 0.018020 0.000023 0.000005 -0.000039 0.000024 -0.000043 -0.000075 -0.000007 0.000019 -0.000004 -0.197823 0.170616 -0.018207 0.000018 0.000008 -0.000026 -0.000001 -0.000002 0.000010 -0.000059 0.000077 0.000140 -0.065273 -0.023959 -0.041943 0.000030 -0.000014 -0.000014 -0.000036 0.000053 0.000009 0.000013 -0.000004 -0.000000 -0.308497 0.177166 0.319096 -38.318956 23.943011 -5.440956 76.423567 -16.558317 13.081940 -6.414475 -0.428190 4.282842 -32.640477 9.372695 2.745284 0.300888 -0.011973 0.279056 -77.358907 -23.216540 36.260368 39.649289 -11.045707 3.998333 11.039163 -6.007528 7.638563 -0.001315 0.000405 -0.000013 
-0.988490 -1.502637 1.627797 16.599550 -7.865600 -383.556759 0.045234 0.147948 0.259864 0.000004 -0.000004 -0.000005 -2.197074 0.962425 -0.901329 -6.141748 5.191509 -7.774746 0.003553 0.011900 0.661277 -19.614336 0.878302 -1.255174 -4.658692 -1.452588 -0.144622 -0.000186 -0.205681 0.638188 -2.017200 -0.222360 -0.135722 14.833311 12.124757 20.738416 -0.000502 -0.003617 -2.030998 -0.000007 0.000007 0.000001 0.234374 -0.149515 0.023467 -0.000027 0.000001 -0.000047 -0.000017 -0.000020 0.000083 -0.000007 -0.000005 -0.000014 0.258071 -0.085736 0.027089 -0.000022 -0.000007 -0.000037 -0.000024 -0.000005 -0.000002 -0.000072 -0.000002 -0.000092 0.264208 -0.017095 0.018082 -0.000015 0.000006 -0.000034 -0.000018 -0.000010 -0.000008 -0.000003 0.000002 -0.000012 0.259429 0.030706 -0.018146 -0.000020 -0.000007 -0.000042 -0.000002 -0.000019 -0.000011 0.000004 -0.000033 -0.000010 0.040700 -0.056387 -0.041932 -0.000018 0.000010 -0.000047 0.000020 -0.000003 -0.000061 0.000037 0.000066 -0.000003 -0.115097 -0.170522 0.638173 -11.178494 -15.161734 -9.938393 -22.978747 -22.887826 -25.316234 0.041532 -0.011755 14.858602 -0.000005 -0.000012 -0.000002 -0.277918 0.007236 0.023401 0.000022 -0.000004 -0.000053 -0.000024 -0.000036 0.000074 -0.000001 -0.000031 -0.000015 -0.261867 0.073352 0.027019 0.000023 0.000003 -0.000040 0.000036 0.000174 0.000236 -0.000000 0.000009 -0.000015 -0.228543 0.133676 0.018020 0.000023 0.000006 -0.000043 0.000026 -0.000042 -0.000081 -0.000005 0.000023 -0.000014 -0.197824 0.170615 -0.018207 0.000018 0.000005 -0.000031 0.000003 0.000003 0.000007 -0.000058 0.000080 0.000142 -0.065273 -0.023959 -0.041943 0.000032 -0.000010 -0.000020 -0.000037 0.000053 0.000010 0.000012 -0.000008 0.000005 -0.309059 0.175592 0.315659 -33.668943 23.343027 -5.858566 74.022482 -16.386312 12.400709 -6.397776 -0.789888 4.917643 -33.721511 9.642067 2.923692 0.301751 -0.013381 0.274058 -78.442674 -23.404616 37.649481 45.381109 -12.284495 5.158987 9.308372 -5.608676 7.387290 -0.001407 0.000434 -0.000013 
